# xmcd CD database file
#
# Track frame offsets:
#	150
#	11342
#	31113
#	46512
#	71088
#	100139
#	122043
#	136970
#	153212
#	162299
#	172803
#	200463
#	218548
#	244013
#
# Disc length: 3474 seconds
#
# Revision: 0
# Processed by: cddbd v1.4PL0 Copyright (c) Steve Scherf et al.
# Submitted via: CDex 1.51
#
DISCID=a50d900e
DTITLE=Rodolphe Raffalli - 2003-Gypsy swing guitar
DYEAR=2003
DGENRE=Jazz
TTITLE0=Twelth year
TTITLE1=Alfonsina y el mar
TTITLE2=Je me voyais déjà
TTITLE3=Les oubliettes
TTITLE4=Roses de Picardie
TTITLE5=God bless the child
TTITLE6=Tu l'laisses aller
TTITLE7=Amarcord
TTITLE8=Vervena
TTITLE9=Sonny boy
TTITLE10=Il ne faut pas briser un rêve
TTITLE11=Vous êtes jolie
TTITLE12=Nous les amoureux
TTITLE13=Natacha
EXTD=YEAR: 2003
EXTT0=
EXTT1=
EXTT2=
EXTT3=
EXTT4=
EXTT5=
EXTT6=
EXTT7=
EXTT8=
EXTT9=
EXTT10=
EXTT11=
EXTT12=
EXTT13=
PLAYORDER=
